<svg xmlns="http://www.w3.org/2000/svg" viewBox="0 0 801 801" width="801" height="801" fill="#ffffff">
    <path d="m684.6 202.9c-1.7-51.2-2.7-120.3-2.2-171.5 0.1-2.3-0.3-4.3-0.8-6.2 1-11.2-5.6-23-19.9-22.6-180.4 4.7-360.7-2.3-541.1-2.6-15 0-21.6 13.2-19.8 24.7-0.5 2.1-1 4.2-0.9 6.7 2.7 215.2 10.1 524.5 10.3 739.8 0 4.9 1.4 8.8 3.6 11.9 1.3 9.1 7.9 17.2 19.7 16.9 78-1.9 156-3.2 233.9-7 69.5-3.4 156 1.1 222.4-21.5 23.5-8 44.5-19.9 62.5-37.1 33-31.4 44.2-73.5 47-118 2.8-42.6-2.3-87.4-3.3-126.7-2.5-101.6-8.1-185.3-11.4-286.8zm-114.2 384c-12.7 0-24.9 10-19.3 25.2 11.5 30.6 16.7 68.6-0.9 97.9-21.2 35.5-59.1 34.5-95.1 39-22 2.8-45.4 1.3-67.6 2-17.2 0.5-235.9 5.8-235.9 6.6-0.5-207.2-7.4-508.4-10.1-715.6 166.5 0.7 333 6.4 499.6 2.8-0.7 170.2 14.4 416.1 15.3 550.6-25.8-8.2-52.5-11.6-80.1-9.8-2.2 0.2-4.1 0.6-5.9 1.3zm16.3 141.6c16.7-28.5 20.9-63.5 12.2-101.4 20.1 0.8 40 4.7 58.8 12.7q0.1 0.3 0.2 0.7c-6.1 44.9-34.5 72.5-71.2 88z"/>
    <path d="m225.4 415.4h0.2q4.6-0.7 9.1 2.6l2.4 2.7q0.3 0.9 3.1 2.9 0.3 0.7-0.7 6.2 1.7 1.2 2.9 6.5 0.2 5-1.7 16.8 0.5 1.2-0.7 2.4-2.6 2.6-10.1 0.2 0 0.3-0.5 0.3-0.2-0.3-1.9-0.5-1.4-0.5-2.4-0.5-0.7-0.2-5.7-1.4-4.4-1.7-4.4-2.4-2.6-2.7-2.6-4.4-1.4-2.8-0.5-6.7 1-3.8 1.5-6.2l2.1-4.1q0-1.7 2.7-7.2 0.4-3.1 1.2-3.8 3.8-2.4 6-3.4zm74.4-80.9q0 11.3-3.2 30 1.5-1.2 4.4-4.1 3.3-3.3 13.4-9.8l3.6-2.6 7.2-3.6 7.9-5.3q-0.5-0.5 1.2-2.4 4.6-7.9 5.3-13.9 0-3.2-1-4.6-0.9-1.7-6-2.2-0.4-0.4-4.5-1.2-9.9 0-13.2 1.2-3.1 1.2-4.8 1.2l-3.6 1-4.1 0.2-1 6.5q0 0.3-0.9 4.8 0 1.7-0.7 4.8zm44.8 109.9l-4-3.8q-3.6-1.2-10.1-7-1.2-1.6-6.3-5.7-4.8-2.9-12-11.3 0-0.2-1.6-3.8-2.9-2.7-5.6-10.6-0.2-0.2-0.7-1-0.5-0.7-1.7-2.1-0.9-1.7-2.1-5.5-1.2-3.9-4.8-8.4h-1q0 1.4-0.7 4v4.8l-1.4 14-3.6 23.2q0.9 2 0 6.5 0 1.9-1.2 6.3-1.2 4.3-3.6 5.7-2.4 1.5-9.4 0.5-2.4-1-6.7-6.7-1.7-0.7-4.8-7.7 0.5-4.3 0.2-5.3-0.2-1.2-0.2-2.9 0-1.6 0.2-2.1-0.5 0.5 0-4.8v-1.7q0-1 1.5-7.7 0-5 0-6.9 0.2-2.2 1.6-5.1v-6.5l0.3-6.4q1.4-4.4 1.4-10.1 0.5-2.9 0.5-5.5 0.2-2.9 1-6.3 0-5.3 0.7-7.9 0.7-2.9 0.7-3.8 0.2-1.2 0.5-3.6l1.7-10.4 0.7-15.1-2.9-1.9q-7.7-3.1-10.8-6.2-1.2-0.8-1-3.6 0.5-3.2 3.4-5.1 3.4 0 9.8-4.1 0.8 0 4.4-2.4l4.3-1.4q0.7-0.7 6-2.6 1.2 0 3.8-1.2 2.7-1.5 5.5-1.7 2.4-0.3 9.6-1.2 7.5-1.2 12.5 0.2 3.1 0 6.7 1.2 5.8 0 13 3.9 1.7 0 4.8 2.1l4.6 2.2 6 4.8q5 4.1 9.1 10.3 2.9 2.9 2.1 7.4-3.3 20.9-29 41.6l-7 3.1-11.7 7.4q6 8.4 15.6 19.7 0.7 1.7 5.5 6.7l8.2 10.1 2.8 4.3 6.5 7.2q0.7 1.7 4.1 4.1l4.1 3.8q5.5 4.4 4.5 9.9-0.9 5.5-6.7 5.7l-5.7-0.4zm68.4-50l-4.1-1.4v9.6q0 14.9 1.7 16.6-0.3 0.2 1.2 5.7 0 1.9 1.9 6 0 1.2 6.7 5.8 2.9 0 14.2-4.8l17-6.5q3.1-1 5.8 1 2.8 1.6 3.3 6.2 0.7 4.3-0.2 6.2-0.7 2-4.1 4.8-3.1 2.9-4.1 4.1-0.9 1.2-3.6 2.7-2.6 1.2-6 2.6-3.1 1.4-4.3 2.2-9.4 4.3-14.4 3.3-3.1 0-6.5-1.2-3.1-1.2-3.6-0.9-0.2 0-1.9-0.3-1.4-0.5-2.9-0.7-1.4-0.5-7.4-1.7 0-0.9-3.4-1.9l-6.5-5.3q-1.6-0.9-3.6-6l-2.1-3.6q-1-0.7-2.7-5.5-0.9-1.2-1.2-4.3-1.2-2.7-1.2-7.5-0.9-1.2-2.1-9.1-1.7-10.3-0.3-18.5 0-4.5 1.7-8.8 0.3-2 0.5-3.9 1.2-6.2 1.7-9.6-1-3.3 3.1-16.1 0-1.9 1.4-5.5 1.7-3.8 2-7.9l1.9-4.6q0-1.9 3.6-14.1 1.9-4.6 1.9-5.3l6-12.7 2.9-3.9q1.7-1.6 5-2.8 1.5-1.2 7.7 0.2 3.8 1.4 5.3 2.9 1.7 0.7 4.1 0.7l18.4-1.2q7 0.5 9.4 1.7 2.4 0.9 4.6 3.6 2.4 2.6 1.6 5.3-0.4 2.6-1.9 4-3.1 2.7-11.5 6.3-14.6 7.9-15.8 8.4l-5.8 2.6q-3.6 2.4-4.6 5.1-7.4 26.8-8.1 30-0.5 2.8-0.7 3.6 0 0.4 0 0.7l4.8-0.5q10.5-3.4 12.4-2.2 1 0 2.7-0.7 8.9-3.1 15.6-2.6 1.2-0.7 2.6 0.9 1.5 1.7 2.2 4.1 1.4 6-3.6 9.4-10.1 6.7-24 10.8-4.6 3.6-12.7 4.5zm97.4-25.9l2.2-5.7q0.2 0 5.2-8.2 0.8 0 2.7-3.1 2.1-2.2 2.1-4.3l3.9-5.3q0-1 2.9-4.3 3.1-6 8.4-13.2 2.8-4.4 3.8-5.8 1.2-1.7 1.7-2.6 0.7-1 1.4-1.7h-1.9l-4.8 0.5q-1 0-2.9 0.4-18.7 5.1-22.8 4.8-4.1-0.2-6.7 1.2-4.1 0-10.1 1.2-10.1 0-13.9-4.5l-2.4-3.1-3.4-6.5q-0.7-2.7 0.3-8.4 0.9-2.4 4.1-3.9 3.3-1.6 7.9-1.6 7.4 0 18.2-0.8 10.8-0.7 23.8-1.2 14.1 0 41-4.3 2.4-0.2 6 1.9 3.6 2.2 5.5 4.8 1.5 3.6 3.4 6.3 2.9 6.9-4.3 15.3l-5.8 5.1q-0.2 0-3.1 4.8-19.4 27.1-21.1 28.8-0.5 0.9-2.7 4.3-1.9 3.1-2.8 4.8l-8.2 9.8q0 1.2-2.2 5.1l-1.4 0.9-7.2 9.9-6.7 9.8-4.3 5.5-2.9 4.8q0 1.5-2.9 5.6-2.6 4-4.6 7.4-1.6 3.1-3.3 5.8l6-1 11-2.9q3.4 0 8.7-2.1 2.4 0 4-0.3 0.5-0.5 4.6-0.7 0.7-0.5 6.5-1.4 5.7-1 7.2-1 3.1 0 11-1.2 6.7-0.5 8.7 1.4 5.5 5.6 1.9 14.4 0 0.5-1.9 1.5-14 4.5-16.6 5.3-6.2 1.2-10.3 3.1-1 0-2.9 0.9-4.1 2-10.8 3.6-14.2 4.1-16.8 5.1-2.4 0.7-9.8 2.9-7.2 1.9-12 2.4-4.8 0.4-12-4.6-2-1.2-2.4-2.2l-2.9-4.3q-6-8.4-0.7-16.5 0-0.5 1.2-2.4l6-14.2 0.9-4.6q0-0.9 2.7-4 0.9-2.2 2.4-4.4 1.4-2.1 1.4-2.4 3.1-4.8 6-7.2l3.1-4.8 3.1-3.8q0-1.9 6.5-8.9 0.5-1.2 4.1-6z"/>
</svg>
